<svg xmlns="http://www.w3.org/2000/svg" viewBox="0 0 238.68 154.7"><g id="Layer_2" data-name="Layer 2"><g id="Layer_2-2" data-name="Layer 2"><path d="M6.35,147.68l-.46,1.18a5.69,5.69,0,0,0-.49,1.76,1.27,1.27,0,0,0,.58,1.2,3.89,3.89,0,0,0,1.9.34v2H0v-2c1.5,0,2.76-1.27,3.78-3.83l7.33-18.47h2.06l7.47,18.46c.74,1.82,1.4,2.92,2,3.29a3.27,3.27,0,0,0,1.72.55v2H12.53v-2a4,4,0,0,0,2-.3,1,1,0,0,0,.39-.79,2.81,2.81,0,0,0-.32-1.1l-.23-.55-.68-1.74Zm.75-2h5.78l-3-7.12Z"/><path d="M32.22,129.86v20a3,3,0,0,0,.42,1.85c.28.33,1,.49,2,.49v1.87H24v-1.87a4.32,4.32,0,0,0,2-.33c.38-.22.58-.89.58-2V135.34a2.74,2.74,0,0,0-.45-1.85A3.18,3.18,0,0,0,24,133v-1.88Z"/><path d="M46.25,152.59A9.94,9.94,0,0,1,43.57,154a9.22,9.22,0,0,1-2.93.47,4.37,4.37,0,0,1-3-.91,2.92,2.92,0,0,1-1-2.27,4.18,4.18,0,0,1,2-3.39,29.21,29.21,0,0,1,7.31-3.27v-1.3c0-.93-.22-1.53-.67-1.79a3.06,3.06,0,0,0-1.58-.39c-1.47,0-2.3.53-2.46,1.61a2.78,2.78,0,0,1-.7,1.61,2.79,2.79,0,0,1-3.23,0,1.67,1.67,0,0,1-.59-1.26c0-1.09.72-2,2.17-2.78a12.42,12.42,0,0,1,5.78-1.14,18.83,18.83,0,0,1,3.38.25,4.76,4.76,0,0,1,2.2.91,3.24,3.24,0,0,1,1.11,1.41,6,6,0,0,1,.27,2v6.68c0,1,.3,1.51.91,1.51s.86-.33,1-1H55a3.11,3.11,0,0,1-1.32,2.67,5.36,5.36,0,0,1-3,.86Q47.37,154.45,46.25,152.59Zm-.32-1.9v-4.12a9.62,9.62,0,0,0-3.19,1.85,2.53,2.53,0,0,0-.75,1.71,1.87,1.87,0,0,0,.44,1.2,1.43,1.43,0,0,0,1.16.54,2.62,2.62,0,0,0,1.22-.3A4.41,4.41,0,0,0,45.93,150.69Z"/><path d="M56.88,154.7l-.12-4.79h1.72a5,5,0,0,0,5,3,5.42,5.42,0,0,0,2.53-.53c.67-.35,1-.75,1-1.2a1,1,0,0,0-.54-.89,11.55,11.55,0,0,0-2.52-.71,30.3,30.3,0,0,1-4.46-1.17,5.19,5.19,0,0,1-2.32-1.7,4.19,4.19,0,0,1-.88-2.63,4.28,4.28,0,0,1,1.79-3.56,7.75,7.75,0,0,1,4.8-1.36,13.22,13.22,0,0,1,4.73.91,3.3,3.3,0,0,0,.67-.91h1.46l.16,4.36H68.52q-1.35-2.69-5.4-2.69a4.69,4.69,0,0,0-2.16.43c-.56.29-.84.65-.84,1.1a1.11,1.11,0,0,0,.68,1,17.34,17.34,0,0,0,3.27.84,22.67,22.67,0,0,1,4.07,1.11A4.88,4.88,0,0,1,70.29,147a4.18,4.18,0,0,1,.78,2.51,4.45,4.45,0,0,1-2,3.76A8.47,8.47,0,0,1,64,154.7a13.1,13.1,0,0,1-4.81-1,2.1,2.1,0,0,0-.71,1Z"/><path d="M81,148.39v1.52a3.21,3.21,0,0,0,.36,1.77,1.92,1.92,0,0,0,1.55.57v1.87h-10v-1.87a2.89,2.89,0,0,0,2-.47,2.81,2.81,0,0,0,.45-1.87v-14.6a3,3,0,0,0-.42-1.84,2.77,2.77,0,0,0-2-.5v-1.86L81,129.86v16.21l3.74-2.69c.71-.53,1.07-.94,1.07-1.22a.53.53,0,0,0-.2-.41,2.65,2.65,0,0,0-1.26-.17v-1.86h8v1.86a7.85,7.85,0,0,0-4.4,1.76l-1.37,1,3.66,4.9a18.46,18.46,0,0,0,2,2.41,2.06,2.06,0,0,0,1.36.63v1.87H84.39v-1.87c.75,0,1.13-.21,1.13-.65a2.73,2.73,0,0,0-.6-1.07l-2.39-3.22Z"/><path d="M105.49,152.59a9.94,9.94,0,0,1-2.68,1.39,9.27,9.27,0,0,1-2.93.47,4.37,4.37,0,0,1-3-.91,2.92,2.92,0,0,1-1-2.27,4.18,4.18,0,0,1,2-3.39,29.21,29.21,0,0,1,7.31-3.27v-1.3c0-.93-.22-1.53-.67-1.79a3.06,3.06,0,0,0-1.58-.39c-1.48,0-2.3.53-2.46,1.61a2.78,2.78,0,0,1-.7,1.61,2.79,2.79,0,0,1-3.23,0,1.67,1.67,0,0,1-.59-1.26c0-1.09.72-2,2.16-2.78a12.46,12.46,0,0,1,5.79-1.14,18.9,18.9,0,0,1,3.38.25,4.76,4.76,0,0,1,2.2.91,3.4,3.4,0,0,1,1.11,1.41,6,6,0,0,1,.27,2v6.68c0,1,.3,1.51.91,1.51s.86-.33,1-1h1.46a3.11,3.11,0,0,1-1.32,2.67,5.36,5.36,0,0,1-3.05.86Q106.61,154.45,105.49,152.59Zm-.32-1.9v-4.12a9.62,9.62,0,0,0-3.19,1.85,2.53,2.53,0,0,0-.75,1.71,1.87,1.87,0,0,0,.44,1.2,1.42,1.42,0,0,0,1.16.54,2.58,2.58,0,0,0,1.21-.3A4.28,4.28,0,0,0,105.17,150.69Z"/><path d="M131.92,154.61l-5.8-18.88a7.78,7.78,0,0,0-1.34-3,2.77,2.77,0,0,0-1.8-.48v-1.95h10.86v1.95q-2,0-2,1.2a5.61,5.61,0,0,0,.28,1.61l3.34,10.64,5-15.4h2.72l6,15.4L152,136a7.25,7.25,0,0,0,.3-1.72c0-1.37-.78-2.06-2.34-2.06v-1.95h7.63v1.95a2.62,2.62,0,0,0-1.86.75c-.53.5-1.14,2-1.85,4.51l-4.78,17.12h-2.74l-6.22-16-5.35,16Z"/><path d="M165.09,139.14v10.77a2.86,2.86,0,0,0,.43,1.84c.28.34.93.5,2,.5v1.87H156.73v-1.87h.4c1,0,1.63-.17,1.89-.52a3.18,3.18,0,0,0,.4-1.82v-5.23a3,3,0,0,0-.41-1.82c-.27-.35-.89-.52-1.88-.52h-.4v-1.86Zm-5.92-6.1a3.07,3.07,0,0,1,.93-2.24,3.14,3.14,0,0,1,4.47,0,3.22,3.22,0,0,1,0,4.5,3,3,0,0,1-2.23.93,3,3,0,0,1-2.25-1A3.12,3.12,0,0,1,159.17,133Z"/><path d="M177,144.24V150a3.22,3.22,0,0,0,.37,1.76,1.55,1.55,0,0,0,1.32.54v1.87h-9.84v-1.87a2.7,2.7,0,0,0,1.95-.48,2.87,2.87,0,0,0,.42-1.82V145a3,3,0,0,0-.41-1.84c-.28-.33-.93-.5-2-.5v-1.86l7.8-1.29a6,6,0,0,1,.35,2.11,8.52,8.52,0,0,1,2.44-1.89,6,6,0,0,1,2.64-.62,5.33,5.33,0,0,1,3.87,1.36,5,5,0,0,1,1.41,3.74V150a2.8,2.8,0,0,0,.43,1.81,2.53,2.53,0,0,0,1.87.49v1.87h-9.79v-1.87a2.12,2.12,0,0,0,1.24-.42c.33-.26.5-.88.5-1.88v-5.27a3.42,3.42,0,0,0-.4-2,1.33,1.33,0,0,0-1.13-.53,2.73,2.73,0,0,0-1.51.51A6.7,6.7,0,0,0,177,144.24Z"/><path d="M198.33,141.62v7.5a8,8,0,0,0,.25,2.49,1,1,0,0,0,1,.61,2.11,2.11,0,0,0,1.86-1.44l1.73.58c-.9,2.22-2.8,3.34-5.72,3.34a5,5,0,0,1-3.62-1.17,4.66,4.66,0,0,1-1.21-3.51v-8.4h-2.09v-1.9l.44,0a5.21,5.21,0,0,0,3.63-1.36,5.58,5.58,0,0,0,1.83-3.44h1.88v4.78h4.33v1.9Z"/><path d="M210.66,146.75a7.75,7.75,0,0,0,1,4.31,3.31,3.31,0,0,0,2.93,1.44,4.94,4.94,0,0,0,3.81-2.11l1.64,1a7.58,7.58,0,0,1-2.88,2.39,9.13,9.13,0,0,1-4.14.94,8.85,8.85,0,0,1-6-2.12A7.86,7.86,0,0,1,207,141.2a8.52,8.52,0,0,1,5.77-2.06,8.15,8.15,0,0,1,5.56,1.89q2.18,1.89,2.17,5.72Zm0-1.77h4.45q-.1-3.89-2.27-3.89a1.77,1.77,0,0,0-1.64,1A6.13,6.13,0,0,0,210.64,145Z"/><path d="M230.45,142.76a8,8,0,0,1,2.32-2.72,4.92,4.92,0,0,1,2.86-.9,2.75,2.75,0,0,1,2.27.94,3.15,3.15,0,0,1,.78,2,2.67,2.67,0,0,1-.62,1.77,2.09,2.09,0,0,1-1.72.74,1.86,1.86,0,0,1-1-.23,5.27,5.27,0,0,1-1-.95,1.81,1.81,0,0,0-1.37-.7c-.76,0-1.33.47-1.71,1.4a11.69,11.69,0,0,0-.57,4.19v1.56a3,3,0,0,0,.4,1.82c.27.35.89.52,1.87.52h.35v1.87H222.63v-1.87c1,0,1.66-.17,1.93-.51a3.05,3.05,0,0,0,.4-1.83v-5a3,3,0,0,0-.41-1.84c-.27-.33-.93-.5-2-.5v-1.86l7.3-1.55A12.92,12.92,0,0,1,230.45,142.76Z"/><path d="M76.56,54.19H61.91l-5.57,6.23-10-3.35L44.64,55.4,49,50.22l3.35-27.56c0-5.29-.12-7.94-1.45-10.83l.85-.84C60,13.64,64.41,15.44,66.7,16.77A133.29,133.29,0,0,0,89,7.74c2.65-1.32,3.73-1.92,5.54-4.09l1.32-.12c9.39,7.1,14,10.47,14,12.76,0,1.2-.84,1.92-2.65,1.92a14.8,14.8,0,0,1-4.45-.84c-3.13.6-6.74,1.2-10.59,1.8L76.21,20.74l-8.55.36a13.09,13.09,0,0,1-2.41,1.32L61.91,52h31c6.14-9,7.34-10.47,8.43-10.47s2.52.6,6.73,4.33c4.7,4.21,5.78,5.78,5.78,6.5,0,1.44-.72,1.8-2.77,1.8H76.56Z"/><path d="M40.33,20.1c10.11,7.34,11.31,8.66,11.31,10.35,0,1.44-.6,1.92-5.17,1.92a78.64,78.64,0,0,1-13.24,9.87c-.12,5.42-.36,10.71-.84,16.13A137.63,137.63,0,0,1,29.74,74c8.91,3.25,16.37,8.9,16.37,17,0,6.5-3.13,9.14-7.34,9.14-4.7,0-5.42-2.29-6-9.26-.36-5.18-1.08-10.35-3.73-14.32-4.33,14.32-12.52,25-27.56,34.77l-.72-1C17.22,90.74,20.47,72.56,20.47,39.23V10.47c0-5.29-.36-7.1-1.44-9.63L19.87,0C35,2.17,38.4,3.25,38.4,5.42c0,1.56-1,2-5,3.49V33.82l-.12,3.61A65.64,65.64,0,0,0,38,25.75a22.45,22.45,0,0,0,1.09-5.17ZM11,26.11a37.51,37.51,0,0,1,6.38,21.18c0,8.19-3.74,12-9,12-4.21,0-5.9-3.49-5.9-7.22,0-2.53,1.21-4.57,3.61-7,3-3.13,4.1-7.82,4.1-13.24a45.74,45.74,0,0,0-.25-5.41Z"/><path d="M58.06,64.86c11,3.84,12.73,4.88,12.73,6.24S69.51,72.79,66.87,73C60.54,85,54.3,92.48,41.17,99.29l-.56-.56a69,69,0,0,0,15.29-27,28.77,28.77,0,0,0,1.44-6.56Zm28,35.37c0,4.89-6.65,8.65-13.62,8.65-2.24,0-2.56-.32-2.8-2.08-.56-3.77-2-5.93-10.09-8.33v-.88a69.09,69.09,0,0,0,11.85-.4c2.17-.24,3.29-.88,3.29-3.28V42.26c0-4.64-.24-6.33-1-7.85l.56-.56c11.21,1.2,14.17,2.08,14.17,3.29,0,1-.56,1.68-3.2,2.56V63.48ZM90.49,66.3c18.26,5,24.1,15.29,24.1,23.62,0,4.89-2.64,6.73-5.84,6.73-3,0-4.49-1.84-5.29-5.29C100.82,79.75,97,72.39,90,66.86Z"/></g></g></svg>