<?xml version="1.0" encoding="utf-8"?>
<!-- Generator: Adobe Illustrator 27.1.1, SVG Export Plug-In . SVG Version: 6.00 Build 0)  -->
<svg version="1.1" id="Layer_1" xmlns="http://www.w3.org/2000/svg" xmlns:xlink="http://www.w3.org/1999/xlink" x="0px" y="0px"
	 viewBox="0 0 270.3 67" style="enable-background:new 0 0 270.3 67;" xml:space="preserve">
<g id="Layer_2_00000118375161945655127390000009275407710792201380_">
	<g id="Layer_2-2">
		<path d="M42.8,15.6v6c0,1.5,0,3,0.2,4.4c0.1,0.6,0.4,1.2,0.8,1.5c0.8,0.4,1.7,0.6,2.6,0.5h1v1H34.3v-1h0.8
			c0.9,0.1,1.7-0.1,2.5-0.5c0.5-0.3,0.8-0.9,0.9-1.5c0.2-1.5,0.2-3,0.2-4.6v-14c0-1.5,0-2.9-0.2-4.4c-0.1-0.6-0.4-1.1-0.8-1.4
			c-0.9-0.3-1.9-0.4-2.8-0.4h-0.5v-1L38,0.1c2.9-0.1,5.1-0.2,6.7-0.2c2.3-0.1,4.6,0.2,6.8,0.7C53,1,54.4,1.9,55.4,3.1
			s1.6,2.8,1.5,4.5c0,1.4-0.3,2.9-1,4.1s-1.7,2.1-3,2.7c-1.3,0.6-3.6,0.9-6.8,0.9L42.8,15.6z M42.8,14.6h2c1.4,0,2.7-0.1,4-0.5
			c1.1-0.4,2-1.1,2.6-2.1c0.7-1.2,1-2.5,1-3.9c0-2.4-0.6-4.1-1.7-5.2c-1.2-1.1-3-1.7-5.6-1.7c-0.7,0-1.5,0-2.2,0.1L42.8,14.6z"/>
		<path d="M59.1,14.6c0-4.4,1.3-8,3.8-10.6c2.4-2.6,5.8-4.1,9.4-4c3.6-0.1,7,1.4,9.5,4c2.5,2.7,3.8,6.3,3.8,10.8
			c0,4.4-1.2,8-3.7,10.7c-2.4,2.7-5.9,4.2-9.6,4.1c-3.6,0.1-7.1-1.4-9.5-4.1C60.3,22.8,59.1,19.1,59.1,14.6z M63.2,14.8
			c0,4.6,0.8,8,2.3,10.3c1.6,2.3,4.2,3.6,7,3.5c2.6,0.1,5.1-1.2,6.5-3.5c1.6-2.3,2.4-5.7,2.4-10.3c0-4.4-0.8-7.8-2.4-10.2
			c-2.6-3.7-7.7-4.7-11.5-2.1c-0.8,0.5-1.5,1.2-2,2C63.9,6.8,63.2,10.3,63.2,14.8z"/>
		<path d="M118.7,29.1H111c-1.4-1-3.5-3.5-6.3-7.5c-0.9-1.3-1.8-2.5-2.8-3.7c-0.6-0.8-1.3-1.5-2-2.2c-0.5-0.3-1.1-0.4-1.7-0.4h-1.1
			v6.3c0,1.5,0,3,0.2,4.4c0.1,0.6,0.4,1.2,0.8,1.5c0.8,0.4,1.7,0.6,2.6,0.5h1.4v1H88.5v-1h0.9c0.9,0.1,1.7-0.1,2.5-0.5
			c0.5-0.3,0.8-0.9,0.9-1.5c0.2-1.5,0.2-3,0.2-4.6v-14c0-1.5,0-2.9-0.2-4.4c-0.1-0.6-0.4-1.1-0.8-1.4c-0.9-0.3-1.9-0.5-2.8-0.4h-0.5
			v-1L92.8,0c2.7-0.1,4.9-0.2,6.5-0.2c2.2-0.1,4.5,0.2,6.7,0.8c1.6,0.4,3,1.3,4.1,2.5c1.1,1.1,1.6,2.6,1.6,4.1
			c0,1.8-0.7,3.6-2.1,4.8c-1.7,1.5-3.8,2.3-6.1,2.5c1.2,0.6,3.1,2.7,5.8,6.2c1.4,2.1,3.1,4,5.1,5.7c1.3,0.9,2.8,1.4,4.4,1.4
			L118.7,29.1z M97.1,14.3c1.1,0,2.1-0.1,3.3-0.1c1,0,2-0.2,2.9-0.5c0.7-0.2,1.4-0.6,2-1.1c0.5-0.5,1-1.2,1.2-1.9
			c0.3-0.9,0.5-1.9,0.4-2.9c0.1-1.7-0.4-3.5-1.5-4.8c-1-1.2-3.2-1.8-6.6-1.8c-0.5,0-1.1,0-1.8,0.1L97.1,14.3L97.1,14.3z"/>
		<path d="M116.5,7.4h-1l0.2-6.9h27.7l0.1,6.9h-0.9c-0.2-1.4-0.6-2.8-1.3-4.1c-0.4-0.7-1-1.3-1.8-1.5c-1.1-0.2-2.2-0.3-3.3-0.3h-4.6
			v20.1c0,1.5,0,2.9,0.2,4.4c0.1,0.6,0.4,1.2,0.9,1.5c0.8,0.4,1.7,0.6,2.6,0.5h1.4v1h-14.2v-1h1.5c0.9,0.1,1.7-0.1,2.5-0.5
			c0.5-0.3,0.8-0.9,0.9-1.5c0.2-1.5,0.2-3,0.2-4.6V1.5h-4.2c-1.2-0.1-2.5,0-3.7,0.3c-0.8,0.3-1.4,0.9-1.8,1.6
			C117.1,4.6,116.6,6,116.5,7.4z"/>
		<path d="M167.9,0.5l0.2,7.1h-1c-0.1-1.4-0.6-2.7-1.3-3.9c-0.5-0.8-1.2-1.5-2.1-1.9c-1.2-0.3-2.5-0.4-3.8-0.4h-5.6v12.1h2.7
			c1.7,0,2.9-0.3,3.4-0.9s0.9-1.8,0.9-3.5h1.1v10.1h-1.1c0.1-1,0-1.9-0.3-2.9c-0.2-0.6-0.6-1.1-1.1-1.5c-0.9-0.3-1.9-0.5-2.8-0.4
			h-2.7v7.1c0,1.5,0,3,0.2,4.4c0.1,0.6,0.4,1.2,0.9,1.5c0.8,0.4,1.7,0.6,2.6,0.5h1v1h-13.3v-1h0.9c0.9,0.1,1.7-0.1,2.5-0.5
			c0.5-0.3,0.8-0.9,0.9-1.5c0.2-1.5,0.2-3,0.2-4.6v-14c0-1.5,0-2.9-0.2-4.4c-0.1-0.6-0.4-1.1-0.9-1.4c-0.9-0.3-1.9-0.5-2.8-0.4h-0.5
			v-1L167.9,0.5z"/>
		<path d="M170.2,14.6c0-4.4,1.3-8,3.8-10.6c2.4-2.6,5.8-4.1,9.4-4c3.6-0.1,7,1.4,9.5,4c2.5,2.7,3.8,6.3,3.8,10.8
			c0,4.4-1.2,8-3.6,10.7c-5,5.3-13.3,5.5-18.5,0.5c-0.2-0.2-0.4-0.3-0.5-0.5C171.4,22.8,170.2,19.1,170.2,14.6z M174.3,14.8
			c0,4.6,0.8,8,2.3,10.3c1.6,2.3,4.2,3.6,7,3.5c2.6,0.1,5.1-1.2,6.5-3.5c1.6-2.3,2.4-5.7,2.4-10.3c0-4.4-0.8-7.8-2.4-10.2
			c-2.6-3.7-7.7-4.7-11.5-2.1c-0.8,0.5-1.5,1.2-2,2C175.1,6.8,174.3,10.3,174.3,14.8L174.3,14.8z"/>
		<path d="M224.2,20.7l-0.2,8.4h-24.3v-1h0.8c0.9,0.1,1.7-0.1,2.5-0.5c0.5-0.3,0.8-0.9,0.9-1.5c0.2-1.5,0.2-3,0.2-4.6v-14
			c0-1.5,0-2.9-0.2-4.4c-0.1-0.6-0.4-1.1-0.9-1.4c-0.9-0.3-1.9-0.5-2.8-0.4h-0.6v-1h13.7v1H212c-0.9-0.1-1.9,0-2.8,0.3
			c-0.5,0.3-0.8,0.8-0.9,1.3c-0.2,1.5-0.3,3-0.2,4.5v15c0,1.3,0,2.6,0.2,3.9c0.1,0.5,0.4,1,0.9,1.2c1,0.4,2.1,0.5,3.2,0.4h2.2
			c1.3,0.1,2.6-0.1,3.9-0.5c1-0.4,1.8-1.1,2.4-2c1-1.5,1.7-3.2,2.1-5L224.2,20.7z"/>
		<path d="M225.7,1.5v-1h13.1v1h-0.6c-0.9-0.1-1.9,0-2.8,0.3c-0.5,0.3-0.8,0.8-0.9,1.3c-0.2,1.5-0.3,3-0.2,4.5v14c0,1.5,0,3,0.2,4.4
			c0.1,0.6,0.4,1.2,0.8,1.5c0.8,0.4,1.7,0.6,2.6,0.5h0.8v1h-13.1v-1h0.8c0.9,0.1,1.7-0.1,2.5-0.5c0.5-0.3,0.8-0.9,0.9-1.5
			c0.2-1.5,0.2-3,0.2-4.6v-14c0.1-1.5,0-2.9-0.1-4.4c-0.1-0.6-0.4-1.1-0.9-1.4c-0.9-0.3-1.9-0.5-2.8-0.4h-0.5V1.5z"/>
		<path d="M241.7,14.6c0-4.4,1.3-8,3.8-10.6c2.4-2.6,5.8-4.1,9.4-4c3.6-0.1,7,1.4,9.5,4c2.5,2.7,3.8,6.3,3.8,10.8
			c0,4.4-1.2,8-3.6,10.7c-5,5.3-13.3,5.5-18.6,0.5c-0.2-0.2-0.4-0.3-0.5-0.5C242.9,22.8,241.7,19.1,241.7,14.6z M245.8,14.8
			c0,4.6,0.8,8,2.3,10.3c1.6,2.3,4.2,3.6,7,3.5c2.6,0.1,5.1-1.2,6.5-3.5c1.6-2.3,2.4-5.7,2.4-10.3c0-4.4-0.8-7.8-2.3-10.2
			c-2.6-3.8-7.8-4.7-11.5-2.1c-0.8,0.5-1.5,1.2-2,2C246.6,6.8,245.8,10.3,245.8,14.8z"/>
		<path d="M6.3,36.4c4.4,1.2,5.1,1.6,5.1,2.2c0,0.3-0.2,0.6-1.4,0.8c-0.8,2.1-1.8,4.1-2.9,6.1c1.7,0.3,2.2,0.5,2.2,0.9
			s-0.2,0.5-1.2,0.9v18.1c0,1.3-1.1,1.7-2.7,1.7c-1,0-1.3-0.1-1.3-1.2l0.3-10.6v-5.9c-1.2,1.5-2.6,2.8-4.2,4L0,53
			c3-4.5,5-9.5,5.9-14.7C6,37.7,6.1,37.1,6,36.5L6.3,36.4z M16.1,44.4c-1.8,2.7-4,4.9-6.7,6.7l-0.2-0.2c2.5-3.4,4.3-7.3,5.3-11.4
			c0.3-0.9,0.4-1.8,0.4-2.8l0.3-0.2c4.6,1.2,5.2,1.6,5.2,2.2s-0.5,0.7-1.6,0.9c-0.7,1.5-1.4,2.9-2.3,4.2h8.3c1.9-2.6,2.2-3,2.5-3
			s0.7,0.2,1.9,1.3c1.4,1.2,1.5,1.5,1.5,1.8s-0.2,0.5-0.8,0.5h-8.1c-0.1,0.5-0.3,0.7-1,1v5.7h3c1.8-2.3,2.1-2.7,2.4-2.7
			s0.7,0.3,1.7,1.2c1.2,1.1,1.5,1.3,1.5,1.7s-0.2,0.5-0.7,0.5h-7.9l0.1,6.6h2.9c1.8-2.3,2.1-2.7,2.4-2.7s0.6,0.2,1.7,1.1
			s1.5,1.3,1.5,1.7S29.2,59,28.7,59H21l0.1,6.3c0,1.2-0.8,1.8-3.1,1.8c-1.1,0-1.3-0.1-1.3-1.2L17.1,52v-7.6H16.1z"/>
		<path d="M37.8,64.6c0,1-0.9,1.6-2.7,1.6c-1,0-1.1-0.1-1.1-1.1l0.3-7.7v-2.9c0.1-0.9,0-1.8-0.3-2.7l0.2-0.2
			c1.5,0.4,2.9,0.9,4.2,1.5h3.4c1.2-1.6,1.5-1.9,1.8-1.9s0.7,0.2,2.1,1.2s1.6,1.5,1.6,1.9s-0.2,0.6-1.2,1v1.9l0.3,5.9
			c0,1.4-0.8,2.1-2.9,2.1c-0.9,0-1.1-0.1-1.1-0.9v-1.1h-4.5L37.8,64.6z M42.3,62.6v-8.9h-3.8c-0.1,0.2-0.3,0.3-0.8,0.5v8.4H42.3z
			 M43.5,48.4c0,1.3-1.1,1.7-2.8,1.7c-1.1,0-1.3-0.2-1.3-1.2l0.3-5.6v-2.9c0.1-0.9,0-1.8-0.3-2.7l0.2-0.2c3,0.8,4.2,1.2,4.6,1.6h7.7
			c1.2-1.4,1.6-1.8,1.8-1.8s0.9,0.3,2.2,1.3s1.5,1.3,1.5,1.7s-0.3,0.6-1.2,1v2.3l0.2,4.5c0,1.2-0.9,1.8-2.9,1.8
			c-1.2,0-1.3-0.2-1.3-1.1v-1h-8.7V48.4z M52.2,47.2v-7.5h-8c-0.2,0.2-0.5,0.4-0.8,0.5v7.1L52.2,47.2L52.2,47.2z M52.5,64.6
			c0,1-1,1.6-2.8,1.6c-1,0-1.1-0.1-1.1-1.1l0.3-7.7v-2.9c0.1-0.9,0-1.8-0.3-2.7l0.2-0.2c1.5,0.4,2.9,0.9,4.3,1.5h3.7
			c1.2-1.6,1.5-1.9,1.8-1.9s0.8,0.2,2.1,1.2s1.7,1.5,1.7,1.9s-0.2,0.6-1.2,1v2.6l0.3,5.9c0,1.5-0.9,2.1-3.1,2.1
			c-0.9,0-1.1-0.1-1.1-0.9v-1.9h-4.8C52.5,63.1,52.5,64.6,52.5,64.6z M57.3,62.6v-8.9h-4.1c-0.1,0.2-0.3,0.3-0.7,0.5v8.4H57.3z"/>
		<path d="M79.5,41.2c0.3-1,0.5-2,0.6-3c0-0.3,0.1-0.6,0.1-0.8s0-0.5-0.1-0.7l0.3-0.2c4.3,0.8,5.2,1.2,5.2,1.7s-0.4,0.7-1.5,0.8
			c-0.6,0.8-1.4,1.6-2.1,2.3h5.9c1.8-2.3,2.1-2.6,2.4-2.6s0.6,0.2,2.1,1.3c1,0.8,1.2,1,1.2,1.4s-0.2,0.5-0.7,0.5h-9.1
			c-0.1,0.3-0.3,0.5-0.8,0.7V45h3.6c1.6-2.1,1.9-2.4,2.2-2.4s0.7,0.3,1.7,1c1.3,1,1.5,1.2,1.5,1.5s-0.2,0.5-0.7,0.5h-8.2v3h3.6
			c1.6-2.1,1.9-2.4,2.2-2.4s0.7,0.3,1.7,1c1.3,1,1.5,1.2,1.5,1.5S91.5,49,91,49h-8.2v3.4h5.8c1.7-2.3,2-2.6,2.3-2.6s0.6,0.2,2,1.3
			c1,0.8,1.3,1.1,1.3,1.4S93.9,53,93.4,53H73.6v0.8c0,1.2-0.7,1.7-2.9,1.7c-0.9,0-1-0.1-1-1l0.2-6.5v-2.8c-1.6,1.4-3.5,2.5-5.5,3.4
			l-0.2-0.3c2.9-2.6,5.1-5.8,6.4-9.5c0.4-0.8,0.5-1.6,0.6-2.4l0.3-0.2c4.4,1.2,5,1.7,5,2.2s-0.6,0.7-1.7,0.8c-0.3,0.5-0.7,1.1-1,1.6
			c0.2,0.1,0.5,0.2,0.6,0.4H79.5z M73.3,57.5c-3.3,0-6.2,0.1-7.9,0.3l-0.3-1.1c1.9,0.2,4.8,0.3,8.2,0.3H78v-0.9
			c0.1-0.8,0-1.7-0.4-2.5l0.2-0.2c4.2,0.5,5.1,0.7,5.1,1.3c0,0.3-0.2,0.6-1.2,0.9V57H89c1.8-2.4,2.1-2.8,2.4-2.8s0.6,0.1,1.9,1.3
			s1.6,1.5,1.6,1.7s-0.2,0.4-0.7,0.4H82.7c2.1,2.5,7.5,3.7,12.9,4.1V62c-1.1,0.5-2,1.7-2.8,3.5c-0.1,0.3-0.3,0.5-0.6,0.5
			c-0.3,0-0.7-0.1-1-0.2c-4.4-1.3-7.4-3.7-9.2-8.3h-0.2l0.2,7.9c0,1.3-1,1.6-3,1.6c-1.1,0-1.3-0.1-1.3-1.1l0.3-5.6
			c-3.8,3.4-8.5,5-13.4,5.9l-0.1-0.3c4.4-1.7,8.1-4.6,10.8-8.3L73.3,57.5z M74.3,41.8c-0.2,0.1-0.5,0.2-0.7,0.2v2.9H79v-3.1
			C79,41.8,74.3,41.8,74.3,41.8z M73.6,48.5H79v-3h-5.4V48.5z M73.6,52.5H79v-3.4h-5.4V52.5z"/>
		<path d="M120.2,57c0-0.2,0.1-0.3,0.3-0.3c0.2,0,0.3,0.1,0.3,0.3l0,0c0,0.1,0,0.6-0.1,0.9c-0.3,2.4-0.4,4.3-0.4,5.5
			c0,0.3-0.2,0.6-0.6,0.6h-0.1h-15.3c1.1-3.8,3.7-6.5,6.1-9c2.8-2.8,5.3-5.5,5.3-9.6c0-3.3-1.6-5-4-5c-2.1,0-3.8,1.4-3.8,3
			c-0.1,0.5,0.2,0.9,0.7,1c0.1,0,0.2,0,0.3,0c0.9,0,1.6,0.6,1.7,1.5c0,0.1,0,0.2,0,0.3c0,1.1-1,2-2.1,2h-0.1c-1.3,0-2.4-1.1-2.4-2.5
			c0-0.1,0-0.2,0-0.3c0-3.2,2.9-6.1,7.1-6.1c4.4,0,7.1,2.2,7.1,6.4c0,4.5-3.9,7.2-7.7,9.7c-2.3,1.6-4.6,3.1-5.8,5h11.7
			c0.9,0,1-0.1,1.1-0.8L120.2,57z"/>
		<path d="M139.2,51.3c0,9.7-4.3,13.1-7.9,13.1c-4.5,0-7.9-3.9-7.9-11.7c0-9.9,4.3-13.2,7.9-13.2C135.7,39.5,139.2,43.3,139.2,51.3z
			 M134.8,52.1c0-8.7-0.9-12-3.5-12s-3.5,3.6-3.5,11.8c0,8.6,0.9,11.9,3.5,11.9S134.8,60.1,134.8,52.1L134.8,52.1z"/>
		<path d="M150.9,61.3c0,2,0.2,2,3.7,2.1c0.2,0,0.3,0.2,0.3,0.4c0,0.1-0.1,0.2-0.3,0.3l-1.8-0.1c-1.5-0.1-2.7-0.1-4-0.1
			s-2.4,0-3.9,0.1l-1.8,0.1c-0.2,0-0.4-0.1-0.4-0.3s0.1-0.4,0.3-0.4h0.1c3.5-0.1,3.8-0.2,3.8-2.1v-16c0-0.4-0.1-0.5-0.5-0.5
			s-1.1,0.3-4.8,1.9c-0.1,0.1-0.2,0.1-0.4,0.1s-0.3-0.1-0.3-0.3l0,0c0-0.2,0.1-0.3,0.2-0.4c4.4-2.2,6-3.7,8-6.2h1.9L150.9,61.3z"/>
		<path d="M168.7,50.7c-0.9,2.4-3.3,3.9-5.9,3.7c-4,0-5.9-3-5.9-6.9c0-4.4,2.7-8,7.8-8c4.6,0,8.2,2.3,8.2,8.9
			c0,8.3-5.7,14.2-14,16.2c-0.2,0-0.4-0.1-0.4-0.3c0-0.1,0.1-0.3,0.2-0.3c7.1-3.1,9.5-8.5,10.2-13.2L168.7,50.7z M168.7,46.8
			c0-4.3-1.6-6.7-3.9-6.7c-1.9,0-3.7,1.9-3.7,7.1c0,4,1.7,5.7,3.6,5.7C167.3,52.9,168.7,50.4,168.7,46.8z"/>
		<path d="M190.8,56.2h-9.1v-1h9.1V56.2z"/>
		<path d="M215.1,57c0-0.2,0.1-0.3,0.3-0.3s0.3,0.1,0.3,0.3l0,0c0,0.1,0,0.6-0.1,0.9c-0.3,2.4-0.4,4.3-0.4,5.5
			c0,0.3-0.2,0.6-0.6,0.6h-0.1h-15.3c1.1-3.8,3.7-6.5,6.1-9c2.8-2.8,5.3-5.5,5.3-9.6c0-3.3-1.6-5-3.9-5c-2.1,0-3.9,1.4-3.9,3
			c-0.1,0.5,0.2,0.9,0.7,1c0.1,0,0.2,0,0.3,0c0.9,0,1.6,0.6,1.7,1.5c0,0.1,0,0.2,0,0.3c0,1.1-1,2-2.1,2h-0.1c-1.3,0-2.4-1.1-2.4-2.4
			c0-0.1,0-0.2,0-0.3c0-3.2,2.9-6.1,7.1-6.1c4.4,0,7.1,2.2,7.1,6.4c0,4.5-3.9,7.2-7.7,9.7c-2.3,1.6-4.6,3.1-5.8,5h11.7
			c0.9,0,1-0.1,1.1-0.8L215.1,57z"/>
		<path d="M234.1,51.3c0,9.7-4.3,13.1-7.9,13.1c-4.5,0-7.9-3.9-7.9-11.7c0-9.9,4.3-13.2,7.9-13.2C230.6,39.5,234.1,43.3,234.1,51.3z
			 M229.7,52.1c0-8.7-0.9-12-3.5-12s-3.5,3.6-3.5,11.8c0,8.6,0.9,11.9,3.5,11.9S229.7,60.1,229.7,52.1z"/>
		<path d="M252,57c0-0.2,0.1-0.3,0.3-0.3s0.3,0.1,0.3,0.3l0,0c0,0.1,0,0.6-0.1,0.9c-0.3,2.4-0.4,4.3-0.5,5.5c0,0.3-0.2,0.6-0.5,0.6
			h-0.1h-15.3c1.1-3.8,3.7-6.5,6.1-9c2.8-2.8,5.3-5.5,5.3-9.6c0-3.3-1.6-5-4-5c-2.1,0-3.9,1.4-3.9,3c-0.1,0.5,0.2,0.9,0.7,1
			c0.1,0,0.2,0,0.3,0c0.9,0,1.6,0.6,1.7,1.5c0,0.1,0,0.2,0,0.3c0,1.1-1,2-2.1,2h-0.1c-1.3,0-2.4-1.1-2.4-2.4c0-0.1,0-0.2,0-0.3
			c0-3.2,2.9-6.1,7.1-6.1c4.4,0,7.1,2.2,7.1,6.4c0,4.5-3.9,7.2-7.7,9.7c-2.3,1.6-4.6,3.1-5.8,5h11.7c0.9,0,1-0.1,1.1-0.8L252,57z"/>
		<rect x="2.5" y="0.3" width="6.1" height="29"/>
		<g>
			<path d="M260.9,50.6c2.9,0,4.4-1.6,4.4-4.7c0-3.5-1.4-5.3-4.2-5.3c-1.2,0-2.1,0.2-3,0.7c-0.8,0.4-1.2,0.9-1.2,1.4
				c0,0.2,0.1,0.4,0.2,0.5c0.2,0.2,0.3,0.3,0.4,0.5c0.2,0.3,0.4,0.5,0.6,0.8c0.2,0.3,0.3,0.6,0.3,1c0,0.5-0.2,0.9-0.5,1.2
				c-0.4,0.3-0.8,0.5-1.3,0.5c-0.6,0-1.1-0.2-1.4-0.7c-0.4-0.5-0.5-1.1-0.5-1.9c0-1.5,0.6-2.7,1.9-3.7c1.2-1,2.8-1.5,4.8-1.5
				c2.2,0,3.9,0.6,5.2,1.7c1.3,1.2,1.9,2.6,1.9,4.4c0,1.3-0.4,2.4-1.1,3.3c-0.8,0.9-1.9,1.6-3.5,2.3c1.8,0.5,3.2,1.3,4.2,2.4
				c1,1.1,1.5,2.5,1.5,4.1c0,2-0.8,3.7-2.3,5c-1.5,1.3-3.6,1.9-6.1,1.9c-2.3,0-4-0.5-5.4-1.6c-1.3-1.1-2-2.5-2-4.2
				c0-0.8,0.2-1.5,0.6-2c0.4-0.5,0.9-0.8,1.7-0.8c0.6,0,1.1,0.2,1.4,0.6c0.3,0.4,0.5,0.9,0.5,1.6c0,0.6-0.2,1-0.5,1.3
				c-0.2,0.2-0.6,0.5-1.3,0.8c-0.2,0.1-0.2,0.3-0.2,0.5c0,0.7,0.4,1.3,1.3,1.8c0.9,0.5,2,0.8,3.4,0.8c1.9,0,3.2-0.5,4.1-1.4
				s1.2-2.3,1.2-4.3c0-2-0.4-3.4-1.1-4.3c-0.7-0.9-1.8-1.4-3.4-1.4c-0.3,0-0.8,0.1-1.6,0.2c-0.3,0-0.6,0.1-0.8,0.1
				c-0.7,0-1.1-0.2-1.1-0.7c0-0.3,0.1-0.5,0.3-0.6c0.2-0.1,0.5-0.2,0.9-0.2H260.9z"/>
		</g>
	</g>
</g>
</svg>
