<svg xmlns="http://www.w3.org/2000/svg" viewBox="0 0 270.28 67"><g id="Layer_2" data-name="Layer 2"><g id="Layer_2-2" data-name="Layer 2"><path d="M42.85,15.65v6A36.62,36.62,0,0,0,43,26.07a2.16,2.16,0,0,0,.85,1.54,4.69,4.69,0,0,0,2.61.51h1v1H34.34v-1h.76a4.91,4.91,0,0,0,2.53-.46,2.13,2.13,0,0,0,.9-1.45,31.58,31.58,0,0,0,.19-4.56v-14a30.14,30.14,0,0,0-.19-4.41,1.93,1.93,0,0,0-.84-1.37,6.78,6.78,0,0,0-2.83-.37h-.52v-1L37.92.4C40.78.3,43,.25,44.62.25a25.35,25.35,0,0,1,6.81.7,8,8,0,0,1,3.92,2.46,6.59,6.59,0,0,1,1.53,4.47A8,8,0,0,1,55.83,12a6.62,6.62,0,0,1-3,2.71q-2,.93-6.85.93Zm0-1.05h2a13.13,13.13,0,0,0,4-.5A4.78,4.78,0,0,0,51.4,12a7.14,7.14,0,0,0,1-3.9q0-3.54-1.74-5.19c-1.16-1.1-3-1.66-5.63-1.66a19.83,19.83,0,0,0-2.19.09Z"/><path d="M59.07,14.62Q59.07,8,62.83,4a12.33,12.33,0,0,1,9.38-4,12.59,12.59,0,0,1,9.48,4q3.81,4,3.81,10.81,0,6.63-3.65,10.74a12.17,12.17,0,0,1-9.58,4.11,12.2,12.2,0,0,1-9.49-4.11Q59.08,21.4,59.07,14.62Zm4.1.15q0,6.89,2.34,10.34a7.9,7.9,0,0,0,7,3.45A7.48,7.48,0,0,0,79,25.11q2.39-3.46,2.38-10.3Q81.38,8.15,79,4.6a8.26,8.26,0,0,0-13.52-.08Q63.17,8,63.17,14.77Z"/><path d="M118.72,29.09H111q-2.06-1.44-6.26-7.5-1.35-1.93-2.8-3.72a15.36,15.36,0,0,0-2-2.17,3,3,0,0,0-1.71-.39H97.13v6.34a39,39,0,0,0,.16,4.42,2.26,2.26,0,0,0,.84,1.54,4.73,4.73,0,0,0,2.63.51h1.37v1H88.46v-1h.92a5,5,0,0,0,2.54-.46,2.13,2.13,0,0,0,.9-1.45A33.21,33.21,0,0,0,93,21.65v-14a31.72,31.72,0,0,0-.19-4.41A1.9,1.9,0,0,0,92,1.87a6.69,6.69,0,0,0-2.82-.37h-.48v-1L92.75.32Q96.85.13,99.24.13a24.31,24.31,0,0,1,6.65.75A8.93,8.93,0,0,1,110,3.37,5.88,5.88,0,0,1,111.6,7.5a6.36,6.36,0,0,1-2.06,4.78,10.31,10.31,0,0,1-6.07,2.46q1.8.87,5.78,6.24a29.14,29.14,0,0,0,5.09,5.71,7.74,7.74,0,0,0,4.38,1.43ZM97.13,14.34c1.06,0,2.14-.07,3.27-.12a12.06,12.06,0,0,0,2.93-.47,5,5,0,0,0,2-1.1,5.1,5.1,0,0,0,1.21-1.91,8.39,8.39,0,0,0,.44-2.9A7.34,7.34,0,0,0,105.49,3Q104,1.2,98.92,1.2c-.52,0-1.11,0-1.79.08Z"/><path d="M116.47,7.39h-1l.15-6.86h27.72l.15,6.86h-.91a10.85,10.85,0,0,0-1.33-4.07,3.47,3.47,0,0,0-1.81-1.54,13.27,13.27,0,0,0-3.31-.28h-4.59V21.65a39,39,0,0,0,.16,4.41,2.23,2.23,0,0,0,.85,1.55,4.76,4.76,0,0,0,2.62.51h1.39v1H122.35v-1h1.47a5,5,0,0,0,2.54-.46,2.18,2.18,0,0,0,.91-1.45,31,31,0,0,0,.2-4.56V1.5h-4.24a16.56,16.56,0,0,0-3.71.26,3.31,3.31,0,0,0-1.78,1.59A11.42,11.42,0,0,0,116.47,7.39Z"/><path d="M167.91.53l.23,7.12h-1a9,9,0,0,0-1.32-3.87,4.55,4.55,0,0,0-2.13-1.91,13.35,13.35,0,0,0-3.78-.37h-5.58V13.61H157c1.73,0,2.87-.29,3.44-.88s.86-1.75.86-3.5h1.05V19.29h-1.05A9.26,9.26,0,0,0,161,16.4a2.48,2.48,0,0,0-1.1-1.46,6.85,6.85,0,0,0-2.83-.38h-2.68v7.09a35.88,35.88,0,0,0,.17,4.42,2.27,2.27,0,0,0,.85,1.54,4.79,4.79,0,0,0,2.65.51h1v1H145.71v-1h.88a5,5,0,0,0,2.54-.46,2.18,2.18,0,0,0,.91-1.45,31,31,0,0,0,.2-4.56v-14a29.61,29.61,0,0,0-.2-4.41,2,2,0,0,0-.85-1.37,6.64,6.64,0,0,0-2.81-.37h-.5v-1Z"/><path d="M170.21,14.62Q170.21,8,174,4a12.33,12.33,0,0,1,9.38-4,12.62,12.62,0,0,1,9.48,4q3.81,4,3.81,10.81,0,6.63-3.65,10.74a13.12,13.12,0,0,1-19.07,0Q170.2,21.4,170.21,14.62Zm4.1.15q0,6.89,2.34,10.34a7.89,7.89,0,0,0,7,3.45,7.48,7.48,0,0,0,6.48-3.45q2.37-3.46,2.38-10.3,0-6.66-2.35-10.21a8.26,8.26,0,0,0-13.52-.08Q174.31,8,174.31,14.77Z"/><path d="M224.2,20.68,224,29.09H199.72v-1h.84a5,5,0,0,0,2.54-.46,2.18,2.18,0,0,0,.91-1.45,31,31,0,0,0,.2-4.56v-14a29.61,29.61,0,0,0-.2-4.41,2,2,0,0,0-.85-1.37,6.64,6.64,0,0,0-2.81-.37h-.63v-1h13.71v1h-1.26a7,7,0,0,0-2.76.34,1.85,1.85,0,0,0-.88,1.3,27.72,27.72,0,0,0-.22,4.51v15a25.81,25.81,0,0,0,.17,3.88,1.8,1.8,0,0,0,.92,1.21,7.55,7.55,0,0,0,3.21.43h2.17a12.21,12.21,0,0,0,3.91-.46,5.51,5.51,0,0,0,2.42-2,15.71,15.71,0,0,0,2.1-4.95Z"/><path d="M225.67,1.5v-1h13.06v1h-.61a7,7,0,0,0-2.76.34,1.81,1.81,0,0,0-.87,1.3,26.13,26.13,0,0,0-.23,4.51v14a39,39,0,0,0,.16,4.42,2.26,2.26,0,0,0,.84,1.54,4.75,4.75,0,0,0,2.63.51h.84v1H225.67v-1h.84a5,5,0,0,0,2.54-.46,2.13,2.13,0,0,0,.9-1.45,33.21,33.21,0,0,0,.19-4.56v-14A31.72,31.72,0,0,0,230,3.24a1.9,1.9,0,0,0-.85-1.37,6.69,6.69,0,0,0-2.82-.37Z"/><path d="M241.7,14.62Q241.7,8,245.46,4a12.35,12.35,0,0,1,9.39-4,12.62,12.62,0,0,1,9.48,4q3.8,4,3.8,10.81,0,6.63-3.64,10.74a13.13,13.13,0,0,1-19.08,0Q241.71,21.4,241.7,14.62Zm4.11.15q0,6.89,2.33,10.34a7.91,7.91,0,0,0,7,3.45,7.48,7.48,0,0,0,6.48-3.45Q264,21.65,264,14.81q0-6.66-2.34-10.21a8.27,8.27,0,0,0-13.53-.08Q245.8,8,245.81,14.77Z"/><path d="M6.28,36.39c4.37,1.23,5.11,1.62,5.11,2.17,0,.32-.23.61-1.36.78a44.36,44.36,0,0,1-2.88,6.11c1.68.29,2.17.52,2.17.91s-.23.55-1.2.87V65.32C8.12,66.61,7.05,67,5.47,67c-1,0-1.26-.07-1.26-1.17l.26-10.61V49.33a23.49,23.49,0,0,1-4.21,4L0,53A38.84,38.84,0,0,0,5.89,38.27,5.16,5.16,0,0,0,6,36.55Zm9.8,8a23.08,23.08,0,0,1-6.7,6.66l-.19-.22A33.82,33.82,0,0,0,14.5,39.47a7.37,7.37,0,0,0,.35-2.76l.26-.19c4.63,1.17,5.24,1.59,5.24,2.17s-.45.74-1.58.91a36.45,36.45,0,0,1-2.3,4.23h8.32c1.9-2.62,2.23-3,2.55-3s.71.23,1.91,1.27c1.36,1.16,1.52,1.49,1.52,1.84s-.19.49-.78.49H21.91c-.07.48-.33.74-1,1v5.66h3c1.75-2.33,2.14-2.72,2.4-2.72s.71.26,1.74,1.17c1.23,1.07,1.46,1.29,1.46,1.65s-.19.48-.71.48H20.94l.12,6.64h2.85c1.75-2.33,2.14-2.72,2.4-2.72s.64.16,1.71,1.13,1.49,1.33,1.49,1.68-.19.49-.71.49H21.06l.13,6.28c0,1.16-.84,1.81-3.1,1.81-1.1,0-1.26-.13-1.26-1.23L17.08,52V44.42Z"/><path d="M37.82,64.57c0,1-.94,1.62-2.68,1.62-1,0-1.14-.13-1.14-1.1l.26-7.67V54.48a6.73,6.73,0,0,0-.32-2.69l.23-.22a19.38,19.38,0,0,1,4.2,1.55h3.37c1.23-1.62,1.45-1.88,1.81-1.88s.71.2,2.07,1.2,1.59,1.49,1.59,1.91-.23.58-1.2,1V57.2l.26,5.92c0,1.45-.84,2.1-2.88,2.1-.91,0-1.07-.13-1.07-.94V63.15h-4.5Zm4.5-2V53.7H38.57c-.07.2-.29.33-.75.49v8.38ZM43.48,48.4c0,1.26-1.1,1.71-2.75,1.71-1.06,0-1.29-.19-1.29-1.16l.26-5.57V40.44a6.92,6.92,0,0,0-.32-2.69l.22-.23c3,.81,4.21,1.23,4.56,1.59h7.67c1.17-1.42,1.56-1.78,1.85-1.78s.94.29,2.23,1.26,1.55,1.33,1.55,1.68-.29.59-1.23,1v2.34l.23,4.53c0,1.19-.94,1.77-2.91,1.77-1.2,0-1.33-.16-1.33-1.13v-1H43.48Zm8.74-1.2V39.69h-8a1.45,1.45,0,0,1-.75.45V47.2Zm.26,17.37c0,1-1,1.62-2.78,1.62-1,0-1.14-.13-1.14-1.1l.26-7.67V54.48a6.73,6.73,0,0,0-.32-2.69l.23-.22A21.61,21.61,0,0,1,53,53.12h3.69c1.23-1.62,1.49-1.88,1.84-1.88s.75.2,2.11,1.2,1.74,1.49,1.74,1.91-.22.58-1.19,1v2.59l.26,5.92c0,1.46-.88,2.1-3.11,2.1-.91,0-1.07-.13-1.07-.94V63.15H52.48Zm4.82-2V53.7H53.22c-.06.2-.29.33-.74.49v8.38Z"/><path d="M79.53,41.21a18.05,18.05,0,0,0,.61-3c0-.33.07-.59.07-.85a5.8,5.8,0,0,0-.07-.74l.26-.19c4.34.81,5.15,1.19,5.15,1.65s-.42.71-1.52.84a21.66,21.66,0,0,1-2.11,2.26h5.89c1.85-2.33,2.1-2.59,2.4-2.59s.64.2,2.07,1.33c1,.81,1.16,1,1.16,1.36s-.19.49-.74.49H83.64c-.07.32-.29.51-.81.74V44.9h3.62c1.59-2.1,1.91-2.39,2.17-2.39s.74.29,1.65,1c1.26,1,1.46,1.23,1.46,1.49s-.2.45-.72.45H82.83v3.05h3.62c1.59-2.11,1.91-2.4,2.17-2.4s.74.29,1.65,1c1.26,1,1.46,1.23,1.46,1.48s-.2.46-.72.46H82.83v3.36h5.76c1.68-2.29,2-2.59,2.29-2.59s.62.2,2,1.3c1,.78,1.3,1.07,1.3,1.39s-.26.49-.81.49H73.61v.8c0,1.17-.72,1.72-2.92,1.72-.87,0-1-.13-1-1l.2-6.5V45.19a21.35,21.35,0,0,1-5.47,3.4l-.16-.26a23.8,23.8,0,0,0,6.43-9.48,5.93,5.93,0,0,0,.55-2.43l.3-.16c4.43,1.23,5,1.68,5,2.2s-.61.71-1.68.75c-.33.55-.65,1.06-1,1.58a1.59,1.59,0,0,1,.64.42ZM73.32,57.52c-3.34,0-6.25.07-7.93.26l-.29-1.1c1.87.19,4.79.26,8.22.26H78v-.88a5.16,5.16,0,0,0-.36-2.45l.2-.23c4.2.52,5.14.74,5.14,1.29,0,.33-.22.59-1.16.91v1.36H89c1.75-2.43,2.14-2.82,2.43-2.82s.64.13,1.94,1.27S95,56.84,95,57.13s-.16.39-.68.39H82.7c2.13,2.52,7.51,3.69,12.88,4.11V62c-1.1.48-2,1.71-2.75,3.49a.7.7,0,0,1-.59.52,3.84,3.84,0,0,1-1-.2c-4.43-1.32-7.44-3.65-9.19-8.28h-.19l.22,7.9c0,1.26-1,1.58-3,1.58-1.14,0-1.33-.1-1.33-1.13l.29-5.57c-3.85,3.43-8.54,5-13.43,5.86l-.13-.29a23.72,23.72,0,0,0,10.84-8.35Zm1-15.72a2.49,2.49,0,0,1-.71.25V44.9H79V41.8Zm-.71,6.73H79V45.48h-5.4Zm0,3.94H79V49.11h-5.4Z"/><path d="M120.2,57a.28.28,0,0,1,.29-.26.3.3,0,0,1,.29.32c0,.1,0,.59-.07.88-.29,2.39-.38,4.3-.45,5.53a.59.59,0,0,1-.65.62H104.34c1.13-3.85,3.69-6.51,6.12-9,2.75-2.85,5.34-5.53,5.34-9.61,0-3.27-1.56-5-4-5-2.07,0-3.85,1.4-3.85,3.05a.87.87,0,0,0,1,1,1.61,1.61,0,0,1,1.68,1.81,2.07,2.07,0,0,1-2.26,2A2.44,2.44,0,0,1,106,45.58c0-3.2,2.94-6.11,7.12-6.11,4.4,0,7.12,2.23,7.12,6.43,0,4.5-3.92,7.19-7.67,9.74-2.3,1.56-4.56,3.08-5.76,5h11.71c.88,0,1-.06,1.13-.77Z"/><path d="M139.16,51.28c0,9.74-4.31,13.1-7.93,13.1-4.47,0-7.93-3.88-7.93-11.68,0-9.87,4.3-13.23,7.93-13.23C135.69,39.47,139.16,43.35,139.16,51.28Zm-4.4.84c0-8.71-.91-12-3.53-12s-3.53,3.63-3.53,11.75c0,8.57.91,11.87,3.53,11.87S134.76,60.11,134.76,52.12Z"/><path d="M150.87,61.27c0,1.95.22,2,3.72,2.14a.33.33,0,0,1,0,.65L152.78,64c-1.46-.06-2.72-.09-4-.09s-2.42,0-3.88.09l-1.84.07a.33.33,0,1,1,0-.65c3.49-.13,3.75-.19,3.75-2.14v-16c0-.42-.13-.55-.52-.55s-1.13.29-4.82,1.87a.9.9,0,0,1-.35.1.31.31,0,0,1-.33-.32A.36.36,0,0,1,141,46c4.4-2.23,6-3.72,8-6.24h1.85Z"/><path d="M168.66,50.66a5.84,5.84,0,0,1-5.86,3.69c-4,0-5.92-3-5.92-6.92,0-4.37,2.72-8,7.8-8,4.56,0,8.19,2.26,8.19,8.86,0,8.28-5.73,14.17-14,16.18-.23,0-.43-.06-.43-.29a.32.32,0,0,1,.2-.32c7.15-3.14,9.54-8.48,10.19-13.24Zm0-3.85c0-4.3-1.58-6.7-3.95-6.7-1.94,0-3.72,1.88-3.72,7.06,0,4,1.72,5.69,3.59,5.69C167.27,52.86,168.66,50.43,168.66,46.81Z"/><path d="M191.83,56.16h-9.06v-1h9.06Z"/><path d="M217.13,57a.28.28,0,0,1,.29-.26.3.3,0,0,1,.29.32c0,.1,0,.59-.07.88-.29,2.39-.38,4.3-.45,5.53a.59.59,0,0,1-.65.62H201.27c1.13-3.85,3.69-6.51,6.12-9,2.75-2.85,5.34-5.53,5.34-9.61,0-3.27-1.56-5-3.95-5-2.07,0-3.85,1.4-3.85,3.05a.87.87,0,0,0,1,1,1.61,1.61,0,0,1,1.68,1.81,2.07,2.07,0,0,1-2.26,2,2.44,2.44,0,0,1-2.43-2.69c0-3.2,2.94-6.11,7.12-6.11,4.4,0,7.12,2.23,7.12,6.43,0,4.5-3.92,7.19-7.67,9.74-2.3,1.56-4.56,3.08-5.76,5h11.71c.88,0,1-.06,1.13-.77Z"/><path d="M236.09,51.28c0,9.74-4.31,13.1-7.93,13.1-4.47,0-7.93-3.88-7.93-11.68,0-9.87,4.3-13.23,7.93-13.23C232.62,39.47,236.09,43.35,236.09,51.28Zm-4.4.84c0-8.71-.91-12-3.53-12s-3.53,3.63-3.53,11.75c0,8.57.91,11.87,3.53,11.87S231.69,60.11,231.69,52.12Z"/><path d="M254,57a.28.28,0,0,1,.29-.26.3.3,0,0,1,.29.32c0,.1,0,.59-.06.88-.29,2.39-.39,4.3-.46,5.53a.58.58,0,0,1-.64.62H238.16c1.13-3.85,3.68-6.51,6.11-9,2.75-2.85,5.34-5.53,5.34-9.61,0-3.27-1.55-5-4-5-2.07,0-3.85,1.4-3.85,3.05a.87.87,0,0,0,1,1,1.61,1.61,0,0,1,1.68,1.81,2.07,2.07,0,0,1-2.26,2,2.44,2.44,0,0,1-2.43-2.69c0-3.2,2.95-6.11,7.12-6.11,4.4,0,7.12,2.23,7.12,6.43,0,4.5-3.92,7.19-7.67,9.74-2.3,1.56-4.56,3.08-5.76,5h11.71c.88,0,1-.06,1.14-.77Z"/><path d="M266.24,61.27c0,1.95.23,2,3.72,2.14a.3.3,0,0,1,.32.32.3.3,0,0,1-.32.33L268.15,64c-1.46-.06-2.72-.09-4-.09s-2.43,0-3.89.09l-1.84.07a.33.33,0,1,1,0-.65c3.49-.13,3.75-.19,3.75-2.14v-16c0-.42-.13-.55-.52-.55s-1.13.29-4.82,1.87a.9.9,0,0,1-.35.1.31.31,0,0,1-.33-.32.36.36,0,0,1,.23-.33c4.4-2.23,6-3.72,8-6.24h1.85Z"/><rect x="2.5" y="0.28" width="6.07" height="28.98"/></g></g></svg>